<svg version="1.2" xmlns="http://www.w3.org/2000/svg" width="40" height="40"><path d="M24.8 39.9c-4.5 0-10.5-3.1-16-8.6C.9 23.3-2 14.2 2.1 10.1l3.9-4c1.5-1.5 4-1.5 5.5 0l4.2 4.2c1.5 1.6 1.5 4.1 0 5.6l-1.8 1.8c0 .6.7 2.7 3.2 5.2s4.5 3.2 5.1 3.2l1.8-1.8c1.6-1.5 4.1-1.5 5.6 0l4.2 4.2c1.5 1.5 1.5 4 0 5.6L29.9 38c-1.3 1.3-3 1.9-5.1 1.9zM17.3 6.3l-2.8-2.8C17.7 1 21.9-.2 26.2.5c6.7.9 12.1 6.3 13.1 13 .8 4.4-.4 8.7-2.9 12.1l-2.8-2.8c1.7-2.5 2.4-5.6 1.9-8.7-.8-5-4.9-9-9.9-9.7-3-.5-6 .3-8.3 1.9zm12.4 11.8h-7.9V8.2h4v6h3.9z" fill="#ff7373"/></svg>