<svg version="1.2" xmlns="http://www.w3.org/2000/svg" width="185" height="27"><path d="M3 9h14v4H5v2h10c1.1 0 2 .9 2 2v6c0 1.1-.9 2-2 2H1v-4h12v-2H3c-1.1 0-2-.9-2-2v-6c0-1.1.9-2 2-2zm90 4H75c-1.1 0-2-.9-2-2V9h18c1.1 0 2 .9 2 2zm-8 12h-4V13h4zm-62 0h-4V9h4zm12-12H19V9h14c1.1 0 2 .9 2 2zm-2 6H19v-4h16v2c0 1.1-.9 2-2 2zm-2-6h4v2h-4zm10 12h-2c-1.1 0-2-.9-2-2V11c0-1.1.9-2 2-2h2zm12-12H37v-2c0-1.1.9-2 2-2h12c1.1 0 2 .9 2 2zm-2 12H39c-1.1 0-2-.9-2-2v-2h16v2c0 1.1-.9 2-2 2zm-2-12h4v8h-4zm10 12h-4V9h4zm12 0h-5l-4-6h5zm0-12H55V9h14c1.1 0 2 .9 2 2zm-2 6H55v-4h16v2c0 1.1-.9 2-2 2zm-2-6h4v2h-4zm30-4h14v4H99v2h10c1.1 0 2 .9 2 2v6c0 1.1-.9 2-2 2H95v-4h12v-2H97c-1.1 0-2-.9-2-2v-6c0-1.1.9-2 2-2z" fill="#fff"/><path d="M17 5c0 1.1-.9 2-2 2H3c-1.1 0-2-.9-2-2V3h16zM5 3H1V1h3zm7 0H6l1-2h4zm5 0h-4l1-2h3zm100 22h-4V9h4zm12 0h-4V9h4zm-2-6h-14v-4h16v2c0 1.1-.9 2-2 2zm8 6h-2c-1.1 0-2-.9-2-2V11c0-1.1.9-2 2-2h2zm12-12h-16v-2c0-1.1.9-2 2-2h12c1.1 0 2 .9 2 2zm-2 12h-12c-1.1 0-2-.9-2-2v-2h16v2c0 1.1-.9 2-2 2zm-2-12h4v8h-4zm28 12h-4V9h4zm12-12h-16V9h12c2.2 0 4 1.8 4 4zm-4 12h-12v-4h16c0 2.2-1.8 4-4 4zm0-12h4v8h-4zm-26 12h-2c-1.1 0-2-.9-2-2V9h4zm10 0h-12c-1.1 0-2-.9-2-2v-2h16v2c0 1.1-.9 2-2 2z" fill="#ff7373"/></svg>